<svg width="93" height="21" viewBox="0 0 93 21" fill="none" xmlns="http://www.w3.org/2000/svg">
<mask id="mask0_566_5" style="mask-type:alpha" maskUnits="userSpaceOnUse" x="0" y="0" width="93" height="21">
<path d="M64.6842 15.4007C63.5971 15.975 63.0867 16.8559 63.0252 18.1213C62.9921 18.788 63.0488 19.2212 63.7058 19.4499C64.1501 19.6008 64.5849 19.7857 65.0055 19.995C65.2419 20.1118 65.4404 20.3064 65.6578 20.4671C65.6152 20.5401 65.5774 20.6082 65.5349 20.6812C65.3458 20.579 65.1662 20.4379 64.963 20.3892C64.7172 20.3308 64.4431 20.2967 64.2068 20.3551C63.9894 20.4087 63.8003 20.5887 63.5971 20.7153C63.5593 20.6666 63.5215 20.6228 63.4789 20.5741C63.5829 20.4038 63.6869 20.2383 63.824 20.0144C63.4789 19.8246 63.1481 19.6008 62.7936 19.4499C62.3493 19.2601 62.1556 18.9827 62.2217 18.4717C62.2737 18.0775 62.2312 17.6735 62.2312 17.1625C61.3663 17.8147 60.5675 18.3889 59.7971 19.007C59.4474 19.2893 59.1543 19.3185 58.7762 19.0752C58.1476 18.6761 57.4907 18.3354 56.8573 17.9509C56.6021 17.7952 56.4131 17.7806 56.1484 17.9607C54.6312 18.9973 52.9959 19.7857 51.2708 20.3892C50.7604 20.5693 50.2972 20.6569 49.7773 20.3064C50.4153 19.8392 51.0439 19.3818 51.7813 18.8415C51.1196 18.6663 50.5902 18.5252 49.9096 18.3451C50.2027 18.1845 50.3539 18.0969 50.5051 18.0191C57.0228 14.6805 61.1016 9.36597 62.6944 2.05122C62.7842 1.64727 62.926 1.43314 63.323 1.3942C63.5498 1.37473 63.7767 1.3358 63.9894 1.2628C65.2608 0.805325 66.4424 0.883193 67.5389 1.77381C67.7185 1.91981 68.054 1.97335 68.2809 1.91495C69.1553 1.69594 69.7366 2.20695 70.4125 2.69363C69.5287 2.90777 68.7157 3.10244 67.8981 3.29711C66.5983 3.61345 66.0217 4.73281 66.5038 6.01277C66.7779 6.73792 67.0426 7.46793 67.364 8.16875C67.6428 8.77223 67.7137 9.38057 67.657 10.0327C67.5814 10.8649 67.52 11.702 67.52 12.5391C67.52 13.0452 67.3451 13.4054 66.9433 13.6438C65.9272 14.2473 65.5207 15.172 65.5396 16.3498C65.5491 16.8072 65.3033 17.4789 65.5113 17.6833C65.9697 18.1261 66.6267 18.3743 67.2364 18.6225C67.5909 18.7685 67.9642 18.8172 68.0729 19.4158C67.6618 19.2358 67.3309 18.9827 66.9953 18.9778C66.6787 18.9778 66.362 19.2406 66.0406 19.3915C66.0075 19.3526 65.9792 19.3136 65.9461 19.2747C66.0453 19.1044 66.1493 18.934 66.2817 18.7101C65.9744 18.5398 65.6814 18.3257 65.3553 18.2089C64.7503 17.9899 64.5896 17.5908 64.67 16.9581C64.7361 16.452 64.6842 15.9264 64.6842 15.4007ZM65.2655 9.92565C64.9536 13.0793 63.0205 14.8995 60.4588 16.2281C60.5912 15.7609 60.714 15.3326 60.8747 14.7632C59.8964 15.4299 59.0834 15.9848 58.2658 16.5396C58.28 16.5688 58.2942 16.598 58.3036 16.632C58.9228 16.3254 59.5419 16.014 60.1658 15.7073C60.1941 15.7414 60.2178 15.7803 60.2461 15.8144C59.6412 16.3595 59.0362 16.9046 58.4312 17.4497C59.367 17.1138 60.2603 16.7099 61.111 16.2232C62.3824 15.5029 63.4884 14.5637 64.2919 13.2983C64.9394 12.2763 65.3364 11.1667 65.2702 9.92565H65.2655Z" fill="#8B0000"/>
<path d="M39.7392 15.5871C38.6466 16.1687 38.1335 17.0609 38.0717 18.3424C38.0385 19.0177 38.0955 19.4564 38.7558 19.6881C39.2024 19.8409 39.6394 20.0282 40.0622 20.2401C40.2997 20.3584 40.4993 20.5556 40.7178 20.7182C40.675 20.7922 40.637 20.8612 40.5943 20.9351C40.4043 20.8316 40.2237 20.6887 40.0195 20.6394C39.7724 20.5802 39.4969 20.5457 39.2594 20.6049C39.0408 20.6591 38.8508 20.8415 38.6466 20.9696C38.6085 20.9203 38.5705 20.876 38.5278 20.8267C38.6323 20.6542 38.7368 20.4866 38.8746 20.2598C38.5278 20.0676 38.1952 19.8409 37.839 19.6881C37.3924 19.4958 37.1976 19.2149 37.2641 18.6973C37.3164 18.2981 37.2736 17.889 37.2736 17.3714C36.4043 18.0319 35.6014 18.6135 34.8271 19.2395C34.4755 19.5254 34.181 19.555 33.801 19.3085C33.1691 18.9043 32.5088 18.5593 31.8722 18.1699C31.6157 18.0122 31.4257 17.9974 31.1596 18.1798C29.6347 19.2297 27.991 20.0282 26.2571 20.6394C25.744 20.8217 25.2784 20.9105 24.7559 20.5556C25.3972 20.0824 26.029 19.6191 26.7701 19.0719C26.105 18.8945 25.573 18.7515 24.8889 18.5692C25.1834 18.4065 25.3354 18.3178 25.4875 18.2389C32.0385 14.8576 36.1382 9.47511 37.7392 2.06677C37.8295 1.65766 37.972 1.44078 38.371 1.40135C38.599 1.38163 38.8271 1.3422 39.0408 1.26827C40.3188 0.804937 41.5064 0.883801 42.6085 1.78581C42.7891 1.93369 43.1263 1.9879 43.3544 1.92876C44.2332 1.70695 44.8175 2.2245 45.4969 2.7174C44.6085 2.93428 43.7914 3.13144 42.9696 3.3286C41.6632 3.64899 41.0836 4.78267 41.5682 6.07901C41.8437 6.81343 42.1097 7.55279 42.4328 8.26257C42.713 8.87377 42.7843 9.4899 42.7273 10.1504C42.6513 10.9932 42.5895 11.841 42.5895 12.6888C42.5895 13.2015 42.4138 13.5662 42.01 13.8077C40.9886 14.4189 40.58 15.3554 40.599 16.5483C40.6085 17.0116 40.3615 17.6918 40.5705 17.8988C41.0313 18.3474 41.6917 18.5988 42.3045 18.8501C42.6608 18.998 43.0361 19.0473 43.1453 19.6536C42.732 19.4712 42.3995 19.2149 42.0622 19.21C41.7439 19.21 41.4256 19.4761 41.1026 19.6289C41.0693 19.5895 41.0408 19.5501 41.0076 19.5106C41.1073 19.3381 41.2119 19.1656 41.3449 18.9389C41.0361 18.7663 40.7416 18.5495 40.4138 18.4312C39.8057 18.2094 39.6442 17.8052 39.7249 17.1644C39.7914 16.6518 39.7392 16.1194 39.7392 15.5871ZM40.3235 10.0419C40.01 13.236 38.067 15.0794 35.4922 16.425C35.6252 15.9519 35.7487 15.5181 35.9102 14.9414C34.9269 15.6167 34.1098 16.1786 33.2879 16.7405C33.3022 16.7701 33.3164 16.7997 33.3259 16.8342C33.9482 16.5236 34.5706 16.2082 35.1976 15.8976C35.2261 15.9321 35.2499 15.9716 35.2784 16.0061C34.6703 16.5581 34.0622 17.1102 33.4542 17.6622C34.3948 17.3221 35.2926 16.913 36.1477 16.4201C37.4257 15.6906 38.5373 14.7393 39.3449 13.4578C39.9957 12.4227 40.3948 11.2988 40.3283 10.0419H40.3235Z" fill="#8B0000"/>
<path d="M14.9833 15.5871C13.8907 16.1687 13.3776 17.0609 13.3159 18.3424C13.2826 19.0177 13.3396 19.4564 13.9999 19.6881C14.4465 19.8409 14.8835 20.0282 15.3063 20.2401C15.5439 20.3584 15.7434 20.5556 15.9619 20.7182C15.9192 20.7922 15.8812 20.8612 15.8384 20.9351C15.6484 20.8316 15.4679 20.6887 15.2636 20.6394C15.0166 20.5802 14.741 20.5457 14.5035 20.6049C14.285 20.6591 14.095 20.8415 13.8907 20.9696C13.8527 20.9203 13.8147 20.876 13.7719 20.8267C13.8764 20.6542 13.9809 20.4866 14.1187 20.2598C13.7719 20.0676 13.4394 19.8409 13.0831 19.6881C12.6365 19.4958 12.4418 19.2149 12.5083 18.6973C12.5605 18.2981 12.5178 17.889 12.5178 17.3714C11.6484 18.0319 10.8456 18.6135 10.0712 19.2395C9.71968 19.5254 9.42514 19.555 9.04509 19.3085C8.41327 18.9043 7.75294 18.5593 7.11636 18.1699C6.85983 18.0122 6.66981 17.9974 6.40377 18.1798C4.87884 19.2297 3.23514 20.0282 1.50118 20.6394C0.98812 20.8217 0.522563 20.9105 0 20.5556C0.641328 20.0824 1.27315 19.6191 2.01424 19.0719C1.34916 18.8945 0.817099 18.7515 0.133016 18.5692C0.427552 18.4065 0.57957 18.3178 0.731588 18.2389C7.28263 14.8576 11.3824 9.47511 12.9833 2.06677C13.0736 1.65766 13.2161 1.44078 13.6151 1.40135C13.8432 1.38163 14.0712 1.3422 14.285 1.26827C15.5629 0.804937 16.7505 0.883801 17.8527 1.78581C18.0332 1.93369 18.3705 1.9879 18.5985 1.92876C19.4774 1.70695 20.0617 2.2245 20.741 2.7174C19.8527 2.93428 19.0356 3.13144 18.2137 3.3286C16.9073 3.64899 16.3277 4.78267 16.8123 6.07901C17.0878 6.81343 17.3538 7.55279 17.6769 8.26257C17.9572 8.87377 18.0284 9.4899 17.9714 10.1504C17.8954 10.9932 17.8337 11.841 17.8337 12.6888C17.8337 13.2015 17.6579 13.5662 17.2541 13.8077C16.2327 14.4189 15.8242 15.3554 15.8432 16.5483C15.8527 17.0116 15.6056 17.6918 15.8147 17.8988C16.2755 18.3474 16.9358 18.5988 17.5486 18.8501C17.9049 18.998 18.2802 19.0473 18.3895 19.6536C17.9762 19.4712 17.6436 19.2149 17.3063 19.21C16.9881 19.21 16.6698 19.4761 16.3467 19.6289C16.3135 19.5895 16.285 19.5501 16.2517 19.5106C16.3515 19.3381 16.456 19.1656 16.589 18.9389C16.2802 18.7663 15.9857 18.5495 15.6579 18.4312C15.0498 18.2094 14.8883 17.8052 14.9691 17.1644C15.0356 16.6518 14.9833 16.1194 14.9833 15.5871ZM15.5676 10.0419C15.2541 13.236 13.3111 15.0794 10.7363 16.425C10.8693 15.9519 10.9928 15.5181 11.1543 14.9414C10.171 15.6167 9.35388 16.1786 8.53203 16.7405C8.54628 16.7701 8.56054 16.7997 8.57004 16.8342C9.19236 16.5236 9.81469 16.2082 10.4418 15.8976C10.4703 15.9321 10.494 15.9716 10.5225 16.0061C9.91445 16.5581 9.30638 17.1102 8.6983 17.6622C9.63892 17.3221 10.5368 16.913 11.3919 16.4201C12.6698 15.6906 13.7814 14.7393 14.589 13.4578C15.2398 12.4227 15.6389 11.2988 15.5724 10.0419H15.5676Z" fill="#8B0000"/>
<path d="M92.9002 19.406C92.5599 19.2697 92.2244 19.0313 91.8841 19.0313C91.5674 19.0313 91.2507 19.2843 90.9293 19.4255L90.8443 19.3038C90.9435 19.1335 91.038 18.9631 91.1609 18.7441C90.7639 18.5251 90.3764 18.2866 89.9699 18.092C89.6532 17.9411 89.5303 17.7416 89.5492 17.3717C89.5823 16.739 89.5587 16.1015 89.5587 15.4104C88.7647 16.0139 88.0321 16.5443 87.9754 17.7416C87.9187 19.0507 87.81 19.0507 88.9348 19.6591C89.1948 19.8002 89.502 19.8537 89.7667 19.9851C90.0361 20.1165 90.2866 20.2966 90.5418 20.4524C90.5134 20.5302 90.4803 20.6032 90.452 20.6811C90.2913 20.6276 90.0928 20.6178 89.9746 20.5156C89.606 20.2041 89.2798 20.2041 88.9112 20.5156C88.7883 20.6178 88.604 20.6373 88.3771 20.5838C88.4811 20.4183 88.5851 20.2479 88.7127 20.0435C88.3109 19.8197 87.9281 19.5763 87.5169 19.3865C87.1908 19.2357 87.0821 19.0215 87.1057 18.6614C87.1388 18.2185 87.1152 17.7708 87.1152 17.1916C86.5906 17.5858 86.0754 17.8778 85.6784 18.2915C84.6906 19.3233 83.7075 19.4644 82.611 18.491C81.8311 17.8 81.1411 17.8924 80.2195 18.457C78.8205 19.3135 77.256 19.8878 75.7389 20.5254C75.4411 20.6519 75.0347 20.4962 74.666 20.3355C75.2993 19.8732 75.9374 19.4109 76.6652 18.8804C76.0036 18.7003 75.4789 18.5592 74.7889 18.3742C75.3702 18.0725 75.7861 17.8632 76.1926 17.6394C80.1769 15.4688 83.2538 12.3394 85.3995 8.25623C85.8013 7.49215 86.1179 6.66966 86.411 5.85204C86.808 4.73755 86.1605 3.6182 85.0356 3.35052C84.6149 3.24832 84.1943 3.12178 83.7737 3.02445C83.353 2.92711 82.9229 2.85411 82.4077 2.75191C83.06 2.2847 83.5941 1.73962 84.4259 1.94889C85.1018 2.11923 85.5933 1.69095 86.0801 1.35515C86.6615 0.956072 87.2286 0.878204 87.8903 1.07287C88.5614 1.26754 89.4405 1.17021 89.8848 1.58875C90.3149 1.99269 90.2676 2.90765 90.5087 3.56953C91.1042 5.22423 91.7564 6.85947 92.3567 8.51417C92.4843 8.86458 92.5552 9.26365 92.5457 9.63839C92.5174 10.6896 92.4559 11.736 92.3614 12.7823C92.3378 13.0354 92.196 13.3712 92.0022 13.4929C90.8206 14.2375 90.3905 15.313 90.3858 16.7049C90.3858 17.761 90.2913 17.7708 91.2224 18.2623C91.5532 18.4375 91.9266 18.5251 92.2622 18.6906C92.5221 18.822 92.7537 19.0167 92.9995 19.1821C92.9617 19.2503 92.9238 19.3233 92.886 19.3914L92.9002 19.406ZM83.2585 17.5469C83.2679 17.581 83.2821 17.6199 83.2916 17.654C84.2794 17.1429 85.2908 16.6757 86.2455 16.1112C87.6776 15.2644 88.8545 14.1304 89.6012 12.5828C90.0455 11.663 90.2393 10.6945 90.14 9.96447C89.899 12.685 87.7012 15.5418 85.4042 16.1599C85.5082 15.7656 85.6122 15.3471 85.7445 14.8458C84.7237 15.5126 83.8304 16.1015 82.9371 16.6855L82.9702 16.7682C83.6744 16.4227 84.3786 16.082 85.0829 15.7364C85.1112 15.7656 85.1396 15.7948 85.1679 15.8192C84.5299 16.3935 83.8965 16.9677 83.2585 17.542V17.5469Z" fill="#8B0000"/>
</mask>
<g mask="url(#mask0_566_5)">
<rect x="-4" y="-6" width="136" height="41" fill="#080707"/>
</g>
</svg>
